<?xml version="1.0" encoding="utf-8"?>
<!-- Generator: Adobe Illustrator 16.0.0, SVG Export Plug-In . SVG Version: 6.00 Build 0)  -->
<!DOCTYPE svg PUBLIC "-//W3C//DTD SVG 1.1//EN" "http://www.w3.org/Graphics/SVG/1.1/DTD/svg11.dtd">
<svg version="1.1" id="Layer_1" xmlns="http://www.w3.org/2000/svg" xmlns:xlink="http://www.w3.org/1999/xlink" x="0px" y="0px"
	 width="612px" height="792px" viewBox="0 0 612 792" enable-background="new 0 0 612 792" xml:space="preserve">
<g>
	<path fill-rule="evenodd" clip-rule="evenodd" fill="#F68B32" d="M234.831,346.24c4.633,17.969,2.091,32.084-14.764,42.682
		c26.468,4.903,48.106-2.67,69.175-16.286c-0.282,11.042-4.372,19.785-10.61,27.63c-7.573,9.525-17.645,15.505-28.888,19.753
		c-1.398,0.529-3.906,0.293-3.729,2.463c0.147,1.813,2.437,1.985,3.95,2.461c12.274,3.854,24.512,1.859,36.656-0.618
		c15.297-3.122,30.18-7.886,46.07-12.445c-4.895,15.104-11.236,28.554-22.136,39.447c-11.291,11.282-25.212,15.883-41.229,15.147
		c3.13,3.392,7.128,3.2,10.708,3.898c21.323,4.163,37.984,14.7,48.027,34.505c0.665,1.312,1.279,2.654,1.85,4.008
		c0.127,0.299-0.029,0.717-0.081,1.433c-5.098-0.563-10.182-1.173-15.276-1.675c-10.598-1.045-21.063-0.082-31.202,3.054
		c-19.455,6.013-30.225,21.266-30.637,43.763c-0.083,4.502-1.544,5.916-5.628,6.575c-38.273,6.176-59.301,30.035-67.817,66.569
		c-0.297,1.276-0.293,2.877-1.57,3.342c-1.768,0.647-2.563-1.1-3.385-2.231c-7.826-10.782-11.029-23.264-12.56-36.17
		c-1.196-10.098-1.114-20.281,0.9-30.335c1.097-5.475,2.96-6.622,7.451-3.221c4.288,3.249,7.021,2.081,10.971-0.43
		c17.708-11.259,37.104-15.169,57.742-11.233c5.185,0.988,4.888-1.1,4.567-4.643c-3.152-34.748-21.993-56.37-56.33-64.237
		c-16.534-3.789-33.275-4.203-50.1-2.262c-2.983,0.343-5.295,1.205-5.71,4.76c-0.188,1.598-1.038,3.137-1.709,4.649
		c-2.008,4.53-4.313,5.146-7.991,2.068c-3.49-2.919-5.346-8.134-11.237-7.722c-0.578,0.04-1.416-1.571-1.898-2.533
		c-3.891-7.761-7.255-15.718-9.071-24.261c-0.62-2.924-1.063-5.546,0.817-8.438c1.785-2.748-0.258-5.697-1.214-8.429
		c-2.619-7.48-2.617-7.996,4.485-11.593c15.778-7.994,32.804-11.985,50.07-15.128c5.835-1.062,11.709-1.428,17.641-1.263
		c3.604,0.101,5.165,1.194,4.95,5.304c-0.466,8.867,4.452,12.81,13.238,11.247c0.904-0.161,1.783-0.473,2.663-0.751
		c5.159-1.642,11.031-3.275,12.083-9.219c1.058-5.974-3.091-10.418-7.859-13.596c-3.504-2.336-7.345-4.214-11.172-6.006
		c-3.831-1.795-7.91-3.063-11.744-4.856c-12.252-5.728-16.551-6.281-4.369-20.813c5.471-6.525,12.375-9.368,21.245-6.965
		c5.843,1.583,11.991,1.901,18.138,1.007C219.624,363.005,228.103,357.152,234.831,346.24z"/>
	<path fill-rule="evenodd" clip-rule="evenodd" fill="#F68B32" d="M296.691,366.316c-4.891-33.931,11.9-55.958,35.51-74.798
		c-27.656-11.534-62.667-8.056-86.018,38.917c-2.102-4.205-1.846-8.448-2.184-12.415c-2.848-33.51,23.729-67.828,56.808-73.331
		c12.046-2.003,23.887,0.905,35.779,2.287c30.783,3.577,61.478,4.886,91.778-3.696c7.854-2.224,15.263-5.421,22.276-9.592
		c1.689-1.003,3.208-2.52,6.36-2.457c-3.835,12.947-9.854,24.227-18.598,34.105c-8.831,9.975-19.877,16.808-33.342,22.485
		c15.576,3.841,29.78,6.455,44.149,8.047c21.94,2.43,43.837,2.977,65.446-2.808c5.898-1.58,11.499-3.894,16.99-6.542
		c1.049-0.506,2.214-1.779,3.53-0.74c1.454,1.149,0.184,2.411-0.276,3.45c-13.901,31.399-37.756,49.151-72.086,52.659
		c-30.227,3.089-58.836-4.018-86.312-15.243c-19.361-7.911-35.525-4.049-51.059,8.004c-9.57,7.426-17.445,16.454-24.559,26.192
		C299.825,362.292,298.701,363.697,296.691,366.316z"/>
	<path fill-rule="evenodd" clip-rule="evenodd" fill="#F68B32" d="M339.365,405.813c-0.93-1.633-0.065-3.137,0.31-4.688
		c1.135-4.669,2.773-9.153,4.678-13.562c11.785-27.297,28.557-35.011,57.502-31.962c17.507,1.843,34.219,7.128,50.222,14.561
		c4.674,2.17,9.466,4.031,14.537,5.223c8.741,2.055,16.433,0.443,23.122-5.671c7.919-7.24,16.261-13.931,25.54-19.391
		c13.878-8.167,28.444-11.952,44.483-7.448c6.914,1.942,12.923,5.341,18.149,10.169c1.798,1.66,3.539,3.678-0.77,4.319
		c-16.761,2.495-29.351,12.286-41.106,23.494c-5.215,4.971-10.467,9.926-15.362,15.203c-20.183,21.764-44.522,25.677-71.896,17.153
		c-10.957-3.41-21.504-7.848-31.388-13.605c-25.721-14.981-50.3-12.492-74.189,4.1c-1.053,0.732-2.142,1.412-3.23,2.092
		C339.833,405.885,339.604,405.813,339.365,405.813z"/>
	<path fill-rule="evenodd" clip-rule="evenodd" fill="#F68B32" d="M351.421,505.529c10.887-12.367,23.091-21.281,39.084-24.032
		c19.014-3.271,34.645,4.3,48.937,15.765c10.245,8.218,18.451,18.655,28.877,26.693c8.664,6.679,17.571,12.844,28.447,15.478
		c9.208,2.229,17.699,0.931,24.907-5.387c23.097-20.241,48.099-19.348,74.222-7.014c1.132,0.534,2.691,0.857,2.688,2.422
		c-0.006,1.369-1.377,1.535-2.436,1.729c-8.805,1.614-15.924,6.65-23.082,11.516c-12.533,8.517-24.168,18.229-36.192,27.426
		c-21.822,16.694-39.679,17.615-63.433,3.627c-14.635-8.618-26.862-20.114-38.507-32.291c-7.531-7.876-14.772-16.035-23.885-22.221
		c-17.34-11.767-36.106-17.333-57.123-13.448C353.422,505.885,352.864,505.691,351.421,505.529z"/>
	<path fill-rule="evenodd" clip-rule="evenodd" fill="#F68B32" d="M346.669,468.759c19.717-38.217,57.311-52.706,99.264-38.644
		c14.988,5.023,29.282,12.084,44.135,17.559c15.808,5.826,32.16,9.407,49.154,9.669c14.99,0.231,29.354-2.241,43.027-8.524
		c6.864-3.156,13.82-6.112,20.748-9.131c0.997-0.436,2.16-0.969,3.096-0.073c0.815,0.778,0.219,1.769-0.277,2.489
		c-14.479,21.033-30.05,41.03-55.218,50.105c-20.54,7.407-40.741,3.729-60.56-3.512c-16.701-6.098-32.718-13.863-47.273-23.938
		c-18.378-12.72-37.91-13.748-58.712-9.207C371.449,458.305,359.431,462.681,346.669,468.759z"/>
	<path fill-rule="evenodd" clip-rule="evenodd" fill="#F68B32" d="M340.895,543.888c16.612-4.104,32.898-3.145,48.863,2.651
		c26.628,9.667,45.534,28.695,61.614,51.107c7.735,10.782,14.005,22.443,20.616,33.914c10.709,18.58,28.106,26.271,48.552,28.479
		c4.378,0.473,8.78,0.708,12.974,1.034c0.595,1.47,0.092,2.182-0.883,2.509c-20.188,6.771-40.695,10.703-61.905,5.676
		c-16.087-3.814-27.501-13.661-34.686-28.473c-9.442-19.467-20.377-37.971-34.567-54.437
		C384.89,567.107,365.133,552.485,340.895,543.888z"/>
	<path fill-rule="evenodd" clip-rule="evenodd" fill="#F68B32" d="M193.508,531.633c-6.869-2.863-13.506-5.37-20.739-5.884
		c-12.483-0.889-24.124,1.949-35.419,7.056c-22.395,10.126-45.305,18.743-69.774,22.406c-12.136,1.817-24.25,2.209-36.177-1.521
		c-17.818-5.573-25.177-17.608-21.85-35.874c1.875-10.305,6.119-19.314,14.641-25.85c2.379-1.825,4.847-2.892,5.069,1.685
		c0.96,19.727,15.826,25.806,31.335,26.592c21.121,1.068,41.383-3.965,61.553-9.339c14.448-3.85,28.94-5.828,43.68-1.712
		c10.869,3.035,19.627,9.177,26.438,18.139C193.038,528.346,194.023,529.287,193.508,531.633z"/>
	<path fill-rule="evenodd" clip-rule="evenodd" fill="#F68B32" d="M329.493,568.93c33.362,18.684,59.188,43.721,69.733,81.896
		c5.164,18.695,13.876,35.33,29.49,47.639c8.244,6.498,17.556,10.775,27.617,13.551c1.649,0.455,4.443,0.071,4.158,2.435
		c-0.229,1.883-2.979,1.683-4.702,1.875c-29.305,3.285-52.785-7.135-70.779-30.286c-8.026-10.326-13.11-22.104-17.253-34.43
		c-9.667-28.763-21.197-56.654-39.662-81.133C327.121,568.659,328.273,568.764,329.493,568.93z"/>
	<path fill-rule="evenodd" clip-rule="evenodd" fill="#F68B32" d="M271.42,138.341c0.878-18.372,12.171-29.719,29.854-30.635
		c17.988-0.931,30.146,5.531,35.385,18.811c5.671,14.383,6.593,29.153,2.156,43.877c-5.83,19.339-14.985,36.885-30.648,50.311
		c-1.508,1.292-3.111,4.296-5.245,2.744c-1.869-1.361,0.41-3.696,1.167-5.44c7.667-17.703,10.321-36.017,7.181-55.134
		c-3.525-21.453-16.595-30.253-37.433-25.072C273.155,137.972,272.467,138.109,271.42,138.341z"/>
	<path fill-rule="evenodd" clip-rule="evenodd" fill="#F68B32" d="M304.114,582.874c-0.392,8.535-0.95,16.946,0.944,25.319
		c1.948,8.619,5.937,16.179,11.139,23.256c14.183,19.288,26.238,39.705,32.13,63.197c4.801,19.136,4.25,38.01-3.478,56.402
		c-0.547,1.303-0.724,3.307-2.487,3.236c-1.983-0.08-1.651-2.253-1.839-3.523c-5.165-34.917-20.08-66.071-37.394-96.227
		c-7.152-12.455-11.976-25.276-10.778-39.884C293.304,603.024,297.439,592.578,304.114,582.874z"/>
	<path fill-rule="evenodd" clip-rule="evenodd" fill="#F68B32" d="M210.792,343.808c-13.777-15.376-26.589-30.967-29.997-51.98
		c-2.9-17.885,10.513-38.708,29.477-45.145c17.909-6.079,35.946-4.637,53.812,0.771c1.211,0.367,2.84,0.518,2.819,2.108
		c-0.026,1.867-1.913,1.943-3.228,2.449c-12.297,4.718-23.804,10.792-33.806,19.498c-20.096,17.489-26.147,39.303-20.079,64.879
		c0.505,2.129,0.997,4.262,1.474,6.399C211.293,342.918,211.132,343.091,210.792,343.808z"/>
	<path fill-rule="evenodd" clip-rule="evenodd" fill="#F68B32" d="M407.541,155.94c-0.908,13.334-5.724,25.835-14.494,36.831
		c-8.808,11.044-19.269,20.333-30.471,28.831c-1.15,0.873-2.506,3.046-4.186,1.423c-1.577-1.526,0.409-3.026,1.13-4.335
		c9.206-16.736,13.226-34.242,8.392-53.204c-1.908-7.488-5.124-14.209-10.781-19.561c-1.597-1.51-2.009-2.548-0.694-4.609
		c9.079-14.225,31.469-17.192,43.774-5.682C404.992,140.104,407.691,147.322,407.541,155.94z"/>
	<path fill-rule="evenodd" clip-rule="evenodd" fill="#F68B32" d="M234.651,128.471c10.52-0.086,18.16,5.146,24.367,13.1
		c1.083,1.389,1.154,2.292-0.16,3.721c-16.511,17.941-15.854,38.615-9.04,60.02c1.659,5.21,4.627,10.001,6.958,15.002
		c0.438,0.936,1.342,1.984,0.07,2.931c-0.896,0.668-1.82,0.142-2.513-0.411c-18.793-15.02-37.74-29.912-44.52-54.718
		c-1.826-6.679-2.606-13.482-1.294-20.258C210.81,136.028,221.135,128.558,234.651,128.471z"/>
	<path fill-rule="evenodd" clip-rule="evenodd" fill="#F68B32" d="M275.299,586.942c-2.649,6.354-4.78,11.147-6.663,16.036
		c-6.936,18.009-8.246,35.749-0.274,54.188c6.648,15.381,10.798,31.67,10.795,48.77c-0.003,16.214-7.805,27.99-20.125,37.456
		c-0.85,0.652-1.71,1.669-2.899,1.057c-1.352-0.697-0.659-1.961-0.38-2.946c7.638-27.006,1.716-53.024-6.241-78.708
		c-5.779-18.651-6.552-36.548,4.235-53.682C259.052,600.688,265.687,593.52,275.299,586.942z"/>
	<path fill-rule="evenodd" clip-rule="evenodd" fill="#F68B32" d="M202.175,711.936c1.018-4.929,2.875-9.454,3.838-14.273
		c2.704-13.521-0.729-26.354-3.93-39.238c-2.134-8.586-4.64-17.169-3.56-26.133c1.306-10.855,6.854-19.743,13.989-27.689
		c8.467-9.431,18.825-16.169,31.031-20.422c-4.181,4.86-8.542,9.579-12.504,14.611c-7.71,9.792-14.243,20.209-15.273,33.104
		c-0.356,4.447,0.287,8.706,1.736,13.014c4.771,14.19,7.08,28.643,2.67,43.41C217.156,698.411,211.234,706.358,202.175,711.936z"/>
	<path fill-rule="evenodd" clip-rule="evenodd" fill="#F68B32" d="M328.065,65.315c0.177,1.552-1.013,2.256-1.95,3.102
		c-6.978,6.289-14.014,12.512-20.906,18.89c-2.018,1.868-3.416,2.023-5.51,0.043c-6.826-6.451-13.791-12.755-20.795-19.012
		c-1.763-1.575-2.141-2.92-1.236-5.232c2.811-7.181,5.4-14.454,7.844-21.769c0.792-2.37,2.048-3.125,4.409-3.1
		c8.472,0.088,16.945,0.039,25.417,0.032c1.702-0.001,3.217,0.027,3.946,2.111c2.793,7.972,5.715,15.898,8.577,23.846
		C327.985,64.567,327.997,64.948,328.065,65.315z"/>
	<path fill-rule="evenodd" clip-rule="evenodd" fill="#F68B32" d="M452.101,178.124c-0.215,5.971-2.74,13.343-7.31,20.033
		c-5.677,8.313-13.081,14.931-20.897,21.125c-0.912,0.721-1.96,2.135-3.313,0.967c-1.349-1.164-0.127-2.403,0.43-3.46
		c5.716-10.855,7.39-22.229,4.484-34.203c-1.057-4.358-2.75-8.543-6.091-11.539c-2.789-2.499-1.836-4.054,0.164-6.218
		c5.96-6.453,13.895-8.427,22.093-5.295C448.713,162.229,452.14,167.618,452.101,178.124z"/>
	<path fill-rule="evenodd" clip-rule="evenodd" fill="#F68B32" d="M163.015,176.21c0.001-8.751,4.402-14.933,11.922-17.209
		c8.267-2.501,17.879,0.724,22.155,7.335c0.792,1.225,1.117,2.042,0.018,3.349c-12.048,14.327-10.646,29.731-3.494,45.554
		c0.378,0.837,0.84,1.639,1.185,2.488c0.349,0.861,0.66,1.845-0.147,2.57c-0.871,0.782-1.684,0.18-2.416-0.412
		c-13.602-11.031-26.847-22.313-28.955-41.386C163.18,177.582,163.067,176.667,163.015,176.21z"/>
	<path fill-rule="evenodd" clip-rule="evenodd" fill="#AD8C32" d="M329.493,568.93c-0.467,0.513-0.934,1.024-1.399,1.543
		c-0.839-0.875-1.933-1.604-1.869-3.108C327.702,567.176,328.656,567.926,329.493,568.93z"/>
</g>
</svg>
