<?xml version="1.0" encoding="utf-8"?>
<!-- Generator: Adobe Illustrator 16.0.0, SVG Export Plug-In . SVG Version: 6.00 Build 0)  -->
<!DOCTYPE svg PUBLIC "-//W3C//DTD SVG 1.1//EN" "http://www.w3.org/Graphics/SVG/1.1/DTD/svg11.dtd">
<svg version="1.1" id="Layer_1" xmlns="http://www.w3.org/2000/svg" xmlns:xlink="http://www.w3.org/1999/xlink" x="0px" y="0px"
	 width="612px" height="792px" viewBox="0 0 612 792" enable-background="new 0 0 612 792" xml:space="preserve">
<g>
	<g>
		<path fill-rule="evenodd" clip-rule="evenodd" fill="#FFFFFF" d="M612.48,388.08c0,136.775,0,273.551,0,410.363
			c-204,0-408,0-612,0c0-105.441,0-210.862,0-316.283c0.329-0.267,0.589,0.048,0.879,0.104c0.189,0.25,0.331,0.567,0.575,0.737
			c0.982,0.682,2.129,0.575,3.245,0.6c8.073,0.179,16.154-0.443,24.223,0.232c0.552,0.046,1.119-0.018,1.673-0.082
			c2.966-0.34,4.43-1.708,4.929-4.659c0.239-1.418,0.35-2.85,0.343-4.297c-0.08-16.155-0.157-32.31-0.199-48.465
			c-0.043-16.957-0.067-33.914-0.063-50.87c0.008-41.593,0.032-83.186,0.062-124.778c0.007-9.275,0.065-18.55,0.095-27.826
			c0.009-2.872-1.032-4.028-3.909-4.433c-1.604-0.226-3.189,0.091-4.785,0.113c-6.636,0.091-13.272,0.285-19.903-0.231
			c-2.99-0.232-5.622,0.29-6.709,3.633c-0.067,0.208-0.3,0.362-0.456,0.541c0-72,0-144,0-216c204,0,408,0,612,0
			c0,113.12,0,226.24,0,339.36c-0.327-0.165-0.41-0.463-0.415-0.791c-0.033-2.097-0.563-4.113-1.037-6.132
			c-2.421-10.321-6.45-19.904-13.199-28.19c-16.302-20.012-45.281-28.265-70.201-19.793c-19.562,6.65-33.003,19.99-40.906,38.901
			c-6.895,16.5-10.832,33.756-11.876,51.613c-0.964,16.475,0.552,32.756,4.729,48.738c4.265,16.313,12.515,30.208,25.667,40.949
			c16.189,13.222,34.958,17.184,55.349,15.119c11.177-1.131,22.003-3.912,32.779-6.942c2.5-0.703,3.861-2.107,4.345-4.76
			c1.762-9.665,3.705-19.296,5.567-28.942c0.508-2.628,0.973-5.265,1.473-7.987c-1.029,0.202-1.664,0.714-2.353,1.104
			c-6.259,3.55-12.603,6.933-19.298,9.602c-9.451,3.767-19.177,6.127-29.444,5.507c-9.383-0.566-17.789-3.666-24.939-9.878
			c-6.188-5.376-10.271-12.161-13.165-19.746c-3.625-9.507-4.206-19.468-4.478-29.479c-0.009-0.318,0.037-0.639,0.076-0.957
			c0.32-2.655,1.7-4.19,4.337-4.726c1.33-0.27,2.68-0.412,4.051-0.376c3.917,0.101,7.835,0.208,11.752,0.217
			c25.598,0.052,51.195,0.075,76.793,0.12C609.627,389.012,611.099,388.785,612.48,388.08z M145.389,301.252
			c-0.041-0.789-0.087-1.264-0.087-1.738c-0.003-19.676-0.009-39.352,0.001-59.028c0.003-5.598,0.133-11.196,0.056-16.792
			c-0.058-4.164-1.667-5.56-5.837-5.449c-0.24,0.006-0.479,0.028-0.718,0.044c-7.511,0.507-15.025,0.4-22.538,0.067
			c-5.121-0.227-6.27,0.822-6.264,5.942c0.014,12.237,0.047,24.474,0.059,36.71c0.034,35.833,0.073,71.664,0.089,107.497
			c0.015,32.954,0.001,65.907,0.009,98.861c0,1.117,0.07,2.235,0.145,3.351c0.129,1.929,1.131,3.3,2.83,4.146
			c0.783,0.391,1.612,0.704,2.447,0.97c13.723,4.378,27.619,7.958,42.009,9.38c10.151,1.004,20.258,1.051,30.364-0.54
			c19.269-3.033,35.034-11.999,47-27.493c0.487-0.631,1.001-1.261,1.601-1.777c1.106-0.955,1.935-0.956,2.927,0.093
			c0.818,0.865,1.496,1.87,2.188,2.847c7.193,10.153,16.308,17.972,27.903,22.674c13.212,5.357,26.985,6.304,41.009,4.811
			c10.678-1.137,21.069-3.688,31.401-6.521c2.407-0.66,3.767-1.959,4.252-4.533c2.247-11.93,4.642-23.831,6.972-35.745
			c0.067-0.342,0.258-0.767-0.327-1.104c-0.852,0.443-1.766,0.912-2.674,1.393c-6.001,3.178-12.002,6.351-18.297,8.928
			c-9.583,3.923-19.472,6.248-29.896,5.576c-9.55-0.616-18.069-3.865-25.241-10.328c-6.34-5.712-10.45-12.854-13.166-20.851
			c-2.409-7.091-3.426-14.445-3.892-21.883c-0.134-2.148-0.395-4.303-0.177-6.465c0.347-3.443,1.647-4.859,5.021-5.338
			c1.104-0.156,2.229-0.242,3.343-0.233c7.835,0.063,15.67,0.216,23.506,0.232c21.595,0.045,43.191,0.044,64.787,0.047
			c5.209,0,6.592-1.355,6.533-6.533c-0.087-7.595-0.151-15.192-0.425-22.782c-0.282-7.842-1.306-15.605-3.291-23.217
			c-1.559-5.973-3.696-11.724-6.672-17.148c-5.453-9.941-13.075-17.755-23.152-22.973c-14.095-7.296-28.986-10.496-44.766-7.325
			c-16.23,3.261-28.878,12.371-39.224,24.98c-0.762,0.928-1.473,1.894-2.503,2.557c-1.352,0.87-1.542,0.842-2.469-0.457
			c-1.021-1.432-1.99-2.901-3.052-4.302c-14.283-18.831-33.471-26.168-56.614-23.869c-10.731,1.066-20.63,4.864-29.943,10.227
			C148.965,299.106,147.339,300.096,145.389,301.252z M372.919,351.749c0.014,0,0.026,0,0.04,0c0,35.674-0.002,71.349,0.002,107.023
			c0,6.639,0.01,13.276,0.043,19.915c0.019,3.753,1.184,4.947,4.832,4.949c7.918,0.005,15.836-0.015,23.754-0.041
			c0.957-0.003,1.928-0.023,2.868-0.181c2.175-0.363,2.83-1.063,3.261-3.223c0.316-1.584,0.239-3.187,0.239-4.784
			c0.005-52.552,0.004-105.104,0.002-157.655c0-0.8-0.031-1.599-0.031-2.398c0.006-15.677,0-31.355,0.024-47.032
			c0.022-14.237,0.124-28.474,0.098-42.71c-0.011-5.911-2.174-7.815-7.988-7.317c-6.39,0.548-12.771,0.655-19.158-0.031
			c-1.026-0.11-2.087-0.108-3.111,0.012c-2.372,0.278-3.966,1.503-4.554,3.932c-0.249,1.026-0.352,2.051-0.352,3.086
			c0,9.438,0.028,18.874,0.03,28.312C372.922,286.319,372.919,319.034,372.919,351.749z M465.158,351.348
			c0-17.913-0.005-35.826,0.002-53.738c0.008-21.671,0.035-43.341,0.025-65.011c-0.001-3.197,0.268-6.398-0.047-9.589
			c-0.29-2.936-1.62-4.312-4.52-4.682c-0.942-0.12-1.919-0.089-2.87-0.009c-6.228,0.523-12.45,0.586-18.677-0.029
			c-1.108-0.109-2.246-0.129-3.351-0.008c-2.785,0.305-4.089,1.555-4.771,4.266c-0.496,1.971-0.39,3.972-0.387,5.965
			c0.038,20.471,0.123,40.941,0.13,61.412c0.019,55.657,0.009,111.315,0.005,166.972c-0.001,7.436-0.014,14.871-0.055,22.306
			c-0.019,3.298,1.04,4.428,4.456,4.432c7.996,0.009,15.992-0.015,23.987-0.04c1.036-0.004,2.066-0.056,3.098-0.275
			c1.514-0.322,2.422-1.183,2.677-2.686c0.146-0.862,0.231-1.743,0.247-2.617c0.044-2.479,0.05-4.957,0.05-7.437
			C465.162,430.836,465.161,391.091,465.158,351.348z M90.321,387.477c0.055,0,0.111,0,0.166,0c0-29.349,0-58.699,0-88.048
			c0-0.958,0.054-1.919,0.003-2.875c-0.266-4.954-1.842-6.404-6.75-6.138c-7.513,0.407-15.023,0.425-22.536,0.009
			c-0.872-0.048-1.756,0.033-2.628,0.117c-2.01,0.193-3.143,1.358-3.614,3.285c-0.29,1.185-0.272,2.381-0.269,3.577
			c0.025,9.196,0.096,18.393,0.101,27.589c0.014,28.791,0.015,57.581,0.001,86.372c-0.01,21.913-0.053,43.825-0.075,65.738
			c-0.005,5.494,1.202,6.72,6.59,6.56c7.675-0.228,15.348-0.239,23.022,0.006c0.797,0.025,1.604,0.028,2.396-0.061
			c2.06-0.232,3.206-1.27,3.523-3.3c0.184-1.178,0.229-2.389,0.222-3.584c-0.022-3.837-0.143-7.674-0.145-11.511
			C90.314,439.301,90.321,413.389,90.321,387.477z"/>
		<path fill-rule="evenodd" clip-rule="evenodd" fill="#1D1D1D" d="M612.48,388.08c-1.382,0.705-2.854,0.932-4.395,0.929
			c-25.598-0.045-51.195-0.068-76.793-0.12c-3.917-0.008-7.835-0.116-11.752-0.217c-1.371-0.035-2.721,0.106-4.051,0.376
			c-2.637,0.536-4.017,2.071-4.337,4.726c-0.039,0.317-0.085,0.638-0.076,0.957c0.271,10.011,0.853,19.972,4.478,29.479
			c2.894,7.585,6.977,14.37,13.165,19.746c7.15,6.212,15.557,9.312,24.939,9.878c10.268,0.62,19.993-1.74,29.444-5.507
			c6.695-2.669,13.039-6.052,19.298-9.602c0.688-0.391,1.323-0.902,2.353-1.104c-0.5,2.723-0.965,5.359-1.473,7.987
			c-1.862,9.646-3.806,19.277-5.567,28.942c-0.483,2.652-1.845,4.057-4.345,4.76c-10.776,3.03-21.603,5.812-32.779,6.942
			c-20.391,2.064-39.159-1.897-55.349-15.119c-13.152-10.741-21.402-24.636-25.667-40.949c-4.177-15.981-5.692-32.263-4.729-48.738
			c1.044-17.856,4.981-35.113,11.876-51.613c7.903-18.911,21.345-32.25,40.906-38.901c24.92-8.472,53.899-0.218,70.201,19.793
			c6.749,8.286,10.778,17.87,13.199,28.19c0.474,2.019,1.004,4.035,1.037,6.132c0.005,0.328,0.088,0.626,0.415,0.791
			C612.48,359.92,612.48,374,612.48,388.08z M542.926,357.376c0-0.021,0-0.041,0-0.061c7.671,0,15.342,0.021,23.013-0.012
			c2.639-0.011,5.278-0.229,7.815-1.008c2.647-0.813,3.743-2.395,3.732-5.163c-0.002-0.638,0.012-1.297-0.137-1.909
			c-1.546-6.395-3.501-12.664-7.372-18.071c-5.739-8.018-13.547-11.744-23.441-10.306c-8.292,1.205-15.178,5.237-20.882,11.277
			c-5.348,5.663-8.416,12.539-10.269,20.02c-1.039,4.197-0.268,5.222,4.047,5.229C527.264,357.385,535.095,357.376,542.926,357.376z
			"/>
		<path fill-rule="evenodd" clip-rule="evenodd" fill="#1D1D1D" d="M0.48,222.48c0.156-0.179,0.388-0.333,0.456-0.541
			c1.088-3.344,3.72-3.865,6.709-3.633c6.631,0.516,13.267,0.322,19.903,0.231c1.595-0.022,3.18-0.339,4.785-0.113
			c2.877,0.405,3.918,1.562,3.909,4.433c-0.03,9.275-0.088,18.55-0.095,27.826c-0.03,41.593-0.054,83.185-0.062,124.778
			c-0.003,16.957,0.021,33.913,0.063,50.87c0.042,16.155,0.119,32.31,0.199,48.465c0.007,1.447-0.104,2.879-0.343,4.297
			c-0.499,2.951-1.963,4.319-4.929,4.659c-0.554,0.064-1.122,0.128-1.673,0.082c-8.069-0.676-16.15-0.054-24.223-0.232
			c-1.115-0.024-2.263,0.082-3.245-0.6c-0.244-0.17-0.386-0.487-0.575-0.737c0.063-1.506-0.85-2.956-0.335-4.47
			c0.399-1.174,0.324-2.36,0.322-3.55c-0.034-20.244,0.216-40.49-0.423-60.729c0.032-0.957,0.091-1.914,0.091-2.87
			c0.005-51.053,0.004-102.105,0.003-153.157c0-0.799-0.021-1.598-0.032-2.396c-0.002-5.249,0.008-10.497-0.022-15.746
			c-0.005-0.835,0.314-1.772-0.483-2.467C0.48,232.08,0.48,227.28,0.48,222.48z"/>
		<path fill-rule="evenodd" clip-rule="evenodd" fill="#676767" d="M0.986,255.092c0.011,0.798,0.031,1.597,0.032,2.396
			c0.001,51.052,0.002,102.104-0.003,153.157c0,0.956-0.06,1.913-0.091,2.87c-0.147-0.001-0.295,0.001-0.443,0.004
			c0-52.799,0-105.6,0-158.399C0.648,255.111,0.817,255.102,0.986,255.092z"/>
		<path fill-rule="evenodd" clip-rule="evenodd" fill="#616161" d="M0.48,413.52c0.148-0.003,0.296-0.005,0.443-0.004
			c0.639,20.239,0.389,40.485,0.423,60.729c0.002,1.189,0.077,2.376-0.322,3.55c-0.514,1.514,0.399,2.964,0.335,4.47
			c-0.291-0.057-0.55-0.371-0.879-0.104C0.48,459.28,0.48,436.4,0.48,413.52z"/>
		<path fill-rule="evenodd" clip-rule="evenodd" fill="#424242" d="M0.986,255.092c-0.168,0.009-0.337,0.019-0.506,0.028
			c0-6.08,0-12.16,0-18.24c0.798,0.695,0.479,1.632,0.483,2.467C0.994,244.595,0.983,249.844,0.986,255.092z"/>
		<path fill-rule="evenodd" clip-rule="evenodd" fill="#1D1D1D" d="M145.389,301.252c1.95-1.156,3.576-2.146,5.226-3.095
			c9.313-5.363,19.211-9.16,29.943-10.227c23.143-2.3,42.332,5.038,56.614,23.869c1.062,1.4,2.032,2.87,3.052,4.302
			c0.926,1.299,1.117,1.327,2.469,0.457c1.03-0.663,1.741-1.629,2.503-2.557c10.346-12.61,22.994-21.719,39.224-24.98
			c15.78-3.17,30.671,0.029,44.766,7.325c10.077,5.217,17.699,13.032,23.152,22.973c2.976,5.424,5.113,11.175,6.672,17.148
			c1.985,7.612,3.009,15.375,3.291,23.217c0.273,7.589,0.338,15.187,0.425,22.782c0.059,5.178-1.324,6.533-6.533,6.533
			c-21.596-0.002-43.191-0.001-64.787-0.047c-7.835-0.016-15.67-0.17-23.506-0.232c-1.114-0.009-2.239,0.077-3.343,0.233
			c-3.374,0.479-4.675,1.895-5.021,5.338c-0.218,2.163,0.043,4.317,0.177,6.465c0.466,7.438,1.483,14.792,3.892,21.883
			c2.716,7.997,6.825,15.139,13.166,20.851c7.172,6.463,15.691,9.712,25.241,10.328c10.424,0.672,20.313-1.653,29.896-5.576
			c6.295-2.577,12.296-5.75,18.297-8.928c0.908-0.48,1.822-0.949,2.674-1.393c0.585,0.338,0.395,0.763,0.327,1.104
			c-2.33,11.914-4.725,23.815-6.972,35.745c-0.485,2.574-1.845,3.873-4.252,4.533c-10.332,2.833-20.724,5.384-31.401,6.521
			c-14.024,1.493-27.797,0.547-41.009-4.811c-11.595-4.702-20.71-12.521-27.903-22.674c-0.692-0.977-1.369-1.981-2.188-2.847
			c-0.992-1.049-1.82-1.048-2.927-0.093c-0.599,0.517-1.114,1.146-1.601,1.777c-11.966,15.494-27.731,24.46-47,27.493
			c-10.105,1.591-20.212,1.544-30.364,0.54c-14.39-1.422-28.286-5.002-42.009-9.38c-0.834-0.266-1.664-0.579-2.447-0.97
			c-1.699-0.846-2.7-2.217-2.83-4.146c-0.075-1.115-0.144-2.233-0.145-3.351c-0.008-32.954,0.006-65.907-0.009-98.861
			c-0.017-35.833-0.055-71.664-0.089-107.497c-0.012-12.236-0.044-24.474-0.059-36.71c-0.006-5.121,1.143-6.169,6.264-5.942
			c7.513,0.333,15.027,0.44,22.538-0.067c0.239-0.016,0.479-0.038,0.718-0.044c4.17-0.111,5.779,1.285,5.837,5.449
			c0.077,5.596-0.053,11.195-0.056,16.792c-0.01,19.676-0.004,39.353-0.001,59.028C145.302,299.988,145.348,300.463,145.389,301.252
			z M145.079,406.696c0,8.238-0.001,16.072,0,23.906c0.001,4.555-0.06,9.111,0.319,13.657c0.348,4.17,1.769,5.831,5.82,6.762
			c2.734,0.628,5.525,0.826,8.31,1.075c7.349,0.657,14.679,0.756,21.965-0.65c10.723-2.071,19.673-7.121,25.977-16.161
			c9.889-14.184,15.74-29.924,17.075-47.201c1.194-15.446-1.224-30.419-6.59-44.933c-2.368-6.402-6.25-11.659-11.844-15.595
			c-7.056-4.964-15.008-6.819-23.533-6.833c-9.487-0.016-17.193,3.668-23.305,10.83c-4.364,5.115-7.366,10.987-9.537,17.315
			c-3.384,9.865-4.321,20.097-4.588,30.433C144.911,388.568,145.698,397.834,145.079,406.696z M290.646,357.395
			c0-0.026,0-0.052,0-0.078c7.356,0,14.712,0.016,22.069-0.008c2.722-0.009,5.44-0.212,8.07-0.957
			c3.098-0.876,4.313-2.625,4.207-5.816c-0.016-0.479-0.008-0.972-0.119-1.433c-1.622-6.717-3.692-13.29-7.999-18.821
			c-6.474-8.315-15.008-11.37-25.292-9.019c-14.427,3.298-27.044,17.34-28.929,31.981c-0.36,2.8,0.656,4.011,3.528,4.152
			c0.877,0.043,1.759-0.002,2.638-0.002C276.094,357.394,283.37,357.395,290.646,357.395z"/>
		<path fill-rule="evenodd" clip-rule="evenodd" fill="#1E1E1E" d="M372.919,351.749c0-32.715,0.003-65.43-0.001-98.144
			c-0.002-9.438-0.03-18.874-0.03-28.312c0-1.036,0.103-2.061,0.352-3.086c0.588-2.429,2.182-3.653,4.554-3.932
			c1.024-0.12,2.085-0.122,3.111-0.012c6.388,0.686,12.769,0.58,19.158,0.031c5.814-0.499,7.978,1.406,7.988,7.317
			c0.026,14.236-0.075,28.474-0.098,42.71c-0.024,15.677-0.019,31.354-0.024,47.032c0,0.799,0.031,1.599,0.031,2.398
			c0.002,52.552,0.003,105.104-0.002,157.655c0,1.598,0.077,3.2-0.239,4.784c-0.431,2.159-1.086,2.859-3.261,3.223
			c-0.94,0.157-1.911,0.178-2.868,0.181c-7.918,0.026-15.836,0.046-23.754,0.041c-3.648-0.002-4.813-1.196-4.832-4.949
			c-0.033-6.639-0.043-13.276-0.043-19.915c-0.004-35.674-0.002-71.349-0.002-107.023
			C372.945,351.749,372.933,351.749,372.919,351.749z"/>
		<path fill-rule="evenodd" clip-rule="evenodd" fill="#1D1D1D" d="M465.16,351.348c0.001,39.744,0.002,79.488-0.001,119.231
			c0,2.479-0.006,4.958-0.05,7.437c-0.016,0.874-0.102,1.755-0.247,2.617c-0.255,1.503-1.163,2.363-2.677,2.686
			c-1.031,0.22-2.062,0.271-3.098,0.275c-7.995,0.025-15.991,0.049-23.987,0.04c-3.416-0.004-4.475-1.134-4.456-4.432
			c0.041-7.435,0.054-14.87,0.055-22.306c0.004-55.657,0.014-111.315-0.005-166.972c-0.007-20.471-0.092-40.941-0.13-61.412
			c-0.003-1.994-0.109-3.994,0.387-5.965c0.682-2.711,1.985-3.961,4.771-4.266c1.104-0.121,2.242-0.101,3.351,0.008
			c6.227,0.615,12.449,0.552,18.677,0.029c0.951-0.08,1.928-0.111,2.87,0.009c2.899,0.37,4.229,1.746,4.52,4.682
			c0.314,3.191,0.046,6.393,0.047,9.589c0.01,21.67-0.018,43.34-0.025,65.011C465.153,315.522,465.158,333.435,465.16,351.348z"/>
		<path fill-rule="evenodd" clip-rule="evenodd" fill="#1D1D1D" d="M90.321,387.477c0,25.912-0.007,51.824,0.007,77.736
			c0.002,3.837,0.123,7.674,0.145,11.511c0.007,1.195-0.038,2.406-0.222,3.584c-0.317,2.03-1.463,3.067-3.523,3.3
			c-0.791,0.089-1.598,0.086-2.396,0.061c-7.674-0.245-15.348-0.233-23.022-0.006c-5.388,0.16-6.595-1.065-6.59-6.56
			c0.021-21.913,0.064-43.825,0.075-65.738c0.014-28.791,0.012-57.582-0.001-86.372c-0.005-9.197-0.075-18.393-0.101-27.589
			c-0.003-1.195-0.021-2.392,0.269-3.577c0.471-1.927,1.604-3.092,3.614-3.285c0.873-0.084,1.757-0.165,2.628-0.117
			c7.513,0.416,15.023,0.398,22.536-0.009c4.908-0.266,6.484,1.184,6.75,6.138c0.051,0.956-0.003,1.917-0.003,2.875
			c-0.001,29.349,0,58.699,0,88.048C90.432,387.477,90.376,387.477,90.321,387.477z"/>
		<path fill-rule="evenodd" clip-rule="evenodd" fill="#FDFDFD" d="M542.926,357.376c-7.831,0-15.662,0.009-23.493-0.004
			c-4.314-0.007-5.086-1.032-4.047-5.229c1.853-7.48,4.921-14.357,10.269-20.02c5.704-6.04,12.59-10.072,20.882-11.277
			c9.895-1.438,17.702,2.288,23.441,10.306c3.871,5.407,5.826,11.676,7.372,18.071c0.148,0.612,0.135,1.271,0.137,1.909
			c0.011,2.768-1.085,4.35-3.732,5.163c-2.537,0.779-5.177,0.997-7.815,1.008c-7.671,0.034-15.342,0.012-23.013,0.012
			C542.926,357.335,542.926,357.355,542.926,357.376z"/>
		<path fill-rule="evenodd" clip-rule="evenodd" fill="#FEFEFE" d="M145.079,406.696c0.619-8.862-0.168-18.128,0.071-27.396
			c0.267-10.336,1.204-20.568,4.588-30.433c2.17-6.328,5.172-12.2,9.537-17.315c6.112-7.162,13.818-10.846,23.305-10.83
			c8.525,0.014,16.477,1.869,23.533,6.833c5.594,3.936,9.476,9.193,11.844,15.595c5.367,14.514,7.784,29.486,6.59,44.933
			c-1.335,17.277-7.187,33.018-17.075,47.201c-6.304,9.04-15.254,14.09-25.977,16.161c-7.286,1.406-14.616,1.308-21.965,0.65
			c-2.785-0.249-5.576-0.447-8.31-1.075c-4.051-0.931-5.473-2.592-5.82-6.762c-0.379-4.546-0.318-9.103-0.319-13.657
			C145.078,422.769,145.079,414.935,145.079,406.696z"/>
		<path fill-rule="evenodd" clip-rule="evenodd" fill="#FDFDFD" d="M290.646,357.395c-7.276,0-14.552,0-21.827,0
			c-0.879,0-1.761,0.045-2.638,0.002c-2.872-0.141-3.888-1.352-3.528-4.152c1.884-14.642,14.502-28.684,28.929-31.981
			c10.284-2.351,18.819,0.704,25.292,9.019c4.307,5.531,6.377,12.104,7.999,18.821c0.111,0.46,0.104,0.954,0.119,1.433
			c0.106,3.191-1.109,4.939-4.207,5.816c-2.63,0.744-5.349,0.948-8.07,0.957c-7.356,0.024-14.713,0.008-22.069,0.008
			C290.646,357.343,290.646,357.369,290.646,357.395z"/>
	</g>
</g>
</svg>
