<svg id="Layer_1" data-name="Layer 1" xmlns="http://www.w3.org/2000/svg" viewBox="0 0 612 792"><defs><style>.cls-1{fill:#fff;}</style></defs><title>Telegraaf</title><path class="cls-1" d="M167,79h49c.39.26.74.67,1.17.77,22.58,5.57,45.39,10.39,67.72,16.83,36.26,10.46,71.9,23.18,109.41,28.87,19.68,3,39.39,4.1,59.17.57,16.14-2.88,29.62-10.51,41.15-22,3.31-3.3,7-6.83,12.22-5.07s6.16,6.89,6.62,11.43c2.57,25.44-4.59,48.09-22.23,66.45-15,15.58-33.89,25.78-54.12,33.06-11.51,4.15-23.53,6.88-35.65,10.33V534.76a433.68,433.68,0,0,0,52.89-61.33,455.43,455.43,0,0,0,40.71-69.12c.05,10.18-.31,20.14-1,30.08-3,42.43-10.83,83.83-27,123.36-24.09,59-62.25,105.64-120.57,133.61-44.34,21.27-91,28.49-139.54,18.81-51.63-10.3-94.36-36.54-129-75.76C39,590.2,18.72,538.27,16.8,479.25A26.47,26.47,0,0,0,16,475v-8a25.08,25.08,0,0,0,.8-4.22c1-49.94,14.6-96.09,41.26-138.38,21.42-34,49.29-62.35,78.26-89.75,9.87-9.33,19.72-18.69,31-29.38C157,201.65,148.2,197.59,139,195.5,110,189,86.13,204.81,80.91,234c-1.41,7.91-.9,16.22-.73,24.34.07,3-.65,4.86-3,6.7-12.38,9.85-24.63,19.87-36.95,29.8-4.57,3.68-9.19,7.3-13.79,10.95L25,305.27c-.15-14.44-.88-28.9-.34-43.3,1.57-41.36,13.54-79.47,36.82-113.9C81.29,118.69,106.46,96,141,85.28,149.46,82.63,158.31,81.06,167,79ZM139.33,277.24c-1.81,2.09-2.74,3-3.48,4-6.37,9-13.21,17.61-19,26.94-35.26,57.2-46.12,118.16-26.7,183.27C98.78,520.32,113.09,546,135.1,567c23.65,22.59,51.7,37.27,83,46.06,30.84,8.67,62.07,12.16,93.75,4.95,28.71-6.54,52.8-22.31,76.34-39.07.13-.1.06-.48,0,.42-16.9,3-33.94,7-51.21,8.79-45.85,4.81-89.7-2.51-130.18-25.35-56.76-32-89.92-79.93-95.45-145.55-3.33-39.46,3.17-77.64,17.29-114.55C131.69,294.57,135.35,286.63,139.33,277.24ZM260.51,553.18c15.26,7.58,30.63,9.9,46.38,10.27,13.38.32,26.62-.67,39.26-5.73,3.27-1.31,4.79-3.08,4.78-7q-.19-142.2-.11-284.4c0-1.38-.2-2.76-.37-4.93-7.64,6-14.46,11.58-21.54,16.79-2.88,2.11-3.83,4.38-3.82,7.89.11,53.15-.43,106.31.33,159.45.3,20.33-1.69,39.7-10.51,58.13A10.89,10.89,0,0,0,314,506c-1.61,7.42-6.24,12.27-12.37,16.6C288,532.25,274.7,542.56,260.51,553.18ZM466.58,160.44c-2.49.34-3.63.43-4.75.65a188.16,188.16,0,0,1-95.24-5.61c-26.37-8.59-52.11-19.14-78-29.07-31-11.86-62.43-21.06-96-20.59-20,.27-39.56,2.63-57.86,11.28-11.2,5.29-20.86,12.57-27.85,24,6.57-2.55,12.25-5.34,18.25-7,32.85-8.94,66.09-9.36,98.69-.16,27.63,7.8,54.63,18,81.71,27.61,28.68,10.24,57.09,21.31,87.8,24C420.79,187.9,445.36,181.32,466.58,160.44ZM289,243.64c-2.38-.8-3.71-1.31-5.08-1.7q-28.53-8.13-57.06-16.22c-17.94-5.06-18.13-5.16-28.28,10.54-19.37,29.95-33.05,62.53-43.58,96.48-2.67,8.6-4.43,17.49-6.61,26.25l1.42.67C196.31,321.58,243.48,284.26,289,243.64ZM211.92,393.3c-18.91,15-36.85,29.3-55,43.37-3.26,2.53-3.59,4.81-2.4,8.41,10.4,31.39,28.54,57.29,54.68,77.56a17.8,17.8,0,0,0,2.72,1.4Zm66.59,63.26c7.68-5.56,14.28-10.52,21.08-15.18a7.4,7.4,0,0,0,3.66-6.91q-.17-81.93-.09-163.85c0-1.51-.13-3-.23-5.32-7.31,5.75-13.6,10.93-20.16,15.76a9.59,9.59,0,0,0-4.35,8.71q.19,80.18.09,160.35Z"/></svg>