<?xml version="1.0" encoding="utf-8"?>
<!-- Generator: Adobe Illustrator 16.0.0, SVG Export Plug-In . SVG Version: 6.00 Build 0)  -->
<!DOCTYPE svg PUBLIC "-//W3C//DTD SVG 1.1//EN" "http://www.w3.org/Graphics/SVG/1.1/DTD/svg11.dtd">
<svg version="1.1" id="Layer_1" xmlns="http://www.w3.org/2000/svg" xmlns:xlink="http://www.w3.org/1999/xlink" x="0px" y="0px"
	 width="612px" height="792px" viewBox="0 0 612 792" enable-background="new 0 0 612 792" xml:space="preserve">
<g>
	<path display="none" fill-rule="evenodd" clip-rule="evenodd" fill="#FEFEFE" d="M317.407,795.704
		c-64.046,0-128.092-0.151-192.136,0.181c-8.493,0.043-11.695-0.955-11.682-10.958c0.363-258.031,0.365-516.062-0.004-774.089
		c-0.014-10.062,3.271-10.968,11.709-10.931c68.97,0.314,137.943,0.176,206.916,0.176c-1.775,9.732-14.136,10.365-16.692,19.425
		c-4.353,14.054-1.287,24.961,13.134,31.058c5.371,1.709,10.696,1.893,15.951-0.503c-6.364,2.743-12.573,1.547-18.771-0.704
		C315.084,43,312.225,33.5,314.775,21.826c7.165-14.831,19.528-19.503,35.062-17.953c23.951,4.684,37.871,25.2,34.5,52.112
		c-1.938,15.471-7,30.158-17.674,41.931c-16.637,18.354-26.876,39.261-30.028,64.052c-1.811,14.252-6.069,15.644-18.003,6.942
		c-18.016-13.133-36.932-23.465-58.921-29.164c-24.835-6.433-47.158-2.346-68.938,9.439c-14.781,9.656-15.951,30.175-31.293,39.568
		c-0.852,0.52,1.114,0.051,1.593-0.007c8.693-1.059,6.328,5.428,6.32,9.696c-0.018,10.914,3.65,20.212,11.042,28.126
		c5.849,6.19,12.423,11.192,21.045,12.844c14.996,3.145,28.728,1.186,40.211-9.909c5.054-7.402,10.059-14.825,9.525-23.458
		c0.369-3.386-3.285-0.488-0.907-1.139c1.874,10.632-4.402,18.059-10.125,25.716c-9.825,9.07-21.658,10.899-34.365,9.638
		c-9.753-1.918-18.351-5.955-24.951-13.639c-18.629-24.769-14.413-51.468,12.211-77.353c46.285-23.826,113.247-7.253,141.017,36.207
		c11.262,17.625,14.437,39.095,22.058,58.552c4.134,10.56-6.052,11.796-13.339,12.265c-17.836,1.153-35.73,0.037-53.586,0.585
		c-16.533,0.51-17.194,1.583-9.582,16.349c3.881,7.528,4.048,15.381,4.063,23.368c0.081,46.827-0.376,93.664,0.261,140.48
		c0.221,16.197-5.284,26.381-20.293,33.338c-59.552,27.612-92.021,75.689-96.982,140.094
		c-4.581,59.472,20.112,107.627,67.135,144.321c20.354,15.88,43.597,24.951,68.479,30.812
		C306.679,787.14,315.926,785.296,317.407,795.704z"/>
	<path fill-rule="evenodd" clip-rule="evenodd" fill="#48484A" d="M188.031,148.402c33.608-24.04,68.16-18.677,102.893-3.058
		c14.022,6.303,26.083,15.749,39.844,27.888c1.04-34.815,16.434-60.044,36.753-84.841c24.168-29.493,13.945-69.444-16.77-81.608
		c-2.763-3.816-12.004,3.143-11.141-6.701c6.168,0,12.338,0,18.504,0c31.003,10.423,43.651,37.386,34.976,74.554
		c25.27-17.784,69.898-11.3,88.866,12.905c0.49,4.434-1.404,7.691-5.007,10.086c-5.234,2.074-9.897,0.162-13.771-2.975
		c-35.896-29.063-89.572,0.672-104.973,34.913c-17.144,38.123-8.808,73.324,11.346,107.377c4.171,7.051,11.349,8.58,18.557,10.784
		c14.773,4.521,17.572,12.28,8.078,24.303c-4.228,5.356-4.962,10.487-5.876,16.657c-2.659,17.895-15.268,30.565-25.309,44.463
		c-6.051,8.377-8.375,14.799,3.99,19.714c13.524,5.374,13.725,16.396,8.817,27.743c-7.511,17.365-5.099,33.667,4.354,49.151
		c4.844,7.934,5.976,15.487,3.853,24.571c-4.318,18.486,3.144,27.78,22.193,29.188c1.229,0.091,2.544,0.38,3.684,0.048
		c27.044-7.9,42.593,8.752,57.302,26.92c77.427,95.631,32.944,241.917-84.437,278.424c-14.822,4.611-30.367,2.823-45.148,6.794
		c-7.4,0-14.801,0-22.203,0c-5.106-6.961-13.385-4.651-20.027-6.104c-77.04-16.826-130.519-76.812-138.13-155.85
		c-6.738-69.957,35.967-140.925,103.7-169.933c11.641-4.987,15.291-10.416,15.11-22.729c-0.735-49.927-0.276-99.87-0.334-149.81
		c-0.009-8.251,2.364-17.224-9.427-20.935c-4.873-1.536-6.12-7.174-3.828-12.587c2.719-6.433,8.259-6.603,13.916-6.606
		c24.016-0.014,48.034-0.007,72.908-0.007c-13.949-38.535-21.563-79.244-65.075-97.606c-31.707-13.381-62.393-18.109-93.99-1.376
		C188.415,153.605,187.619,151.68,188.031,148.402z"/>
	<path display="none" fill-rule="evenodd" clip-rule="evenodd" fill="#FEFEFE" d="M339.61,795.704
		c8.617-7.062,19.592-4.395,29.347-6.913c66.64-17.206,111.273-58.367,128.405-124.616c17.127-66.223-1.666-124.07-51.69-171.374
		c-6.441-6.091-12.489-7.904-21.5-5.58c-8.103,2.092-17.316,1.965-25.662,0.563c-17.071-2.866-24.321-16.923-17.435-32.894
		c2.558-5.931,6.427-14.078,1.584-17.027c-16.27-9.909-9.701-27.712-16.357-40.646c-2.932-5.688,2.072-8.785,4.638-12.839
		c10.532-16.642,8.354-23.483-9.99-29.21c-10.83-3.379-12.433-8.362-5.728-17.239c8.907-11.784,17.81-23.604,25.962-35.914
		c4.503-6.801,10.524-13.621,1.744-22.807c-6.452-6.751,2.681-5.251,5.43-6.437c5.464-2.352,10.399-5.393,9.573-11.94
		c-0.924-7.336-6.502-10.488-13.397-9.555c-10.631,1.435-15.513-4.944-20.063-12.774c-19.126-32.915-27.018-67.471-13.701-104.378
		c14.722-40.796,58.181-63.333,97.7-53.564c11.361,2.808,15.788,15.802,28.063,15.12c21.713,5.58,24.945,24.188,29.509,41.859
		c2.704,28.935-8.468,50.449-34.298,64.098c-10.251,4.803-20.527,9.595-32.313,6.505c11.58,3.245,21.791-1.366,32.012-5.93
		c19.175-10.589,32.467-25.406,34.696-48.195c4.798-27.061-11.313-45.816-25.871-65.187c-27.296-23.493-57.869-23.048-91.022-11.915
		c5.676-32.315-0.626-59.689-31.131-76.834c48.723,0,97.45,0.239,146.172-0.238c7.954-0.076,9.482,1.546,9.475,9.49
		c-0.269,259.04-0.269,518.079,0,777.119c0.008,7.942-1.522,9.554-9.475,9.49C449.396,795.489,394.504,795.704,339.61,795.704z"/>
	<path fill-rule="evenodd" clip-rule="evenodd" fill="#6D6D6F" d="M339.61,0.082c3.713,2.233,7.428,4.467,11.141,6.701
		c-13.543,0.068-26.742,0.903-33.786,15.311c-3.428,0.597-5.432-0.086-3.702-4.123c2.568-9.931,12.305-12.272,18.947-17.889
		C334.677,0.082,337.144,0.082,339.61,0.082z"/>
	<path fill-rule="evenodd" clip-rule="evenodd" fill="#5A5A5C" d="M188.031,148.402c1.398,1.253,2.799,2.507,4.199,3.758
		c-24.713,27.985-27.722,46.701-11.868,73.852c1.185,3.26,0.148,4.376-3.173,3.3c-7.805-7.673-12.974-17.235-11.812-27.884
		c1.31-12.01-5.727-9.563-13.339-9.523C170.413,182.032,170.469,158.209,188.031,148.402z"/>
	<path fill-rule="evenodd" clip-rule="evenodd" fill="#8E8E8F" d="M259.713,65.189c-18.66-0.712-29.726,9.07-35.797,29.131
		C222.987,70.954,234.795,61.923,259.713,65.189z"/>
	<path fill-rule="evenodd" clip-rule="evenodd" fill="#939395" d="M120.063,171.494c-2.477,21.037,12.538,21.881,30.893,23.166
		c-12.54,7.982-20.403,5.247-27.282,0.549C115.301,189.484,115.712,181.078,120.063,171.494z"/>
	<path fill-rule="evenodd" clip-rule="evenodd" fill="#949495" d="M202.449,237.522c12.876,0.607,25.233-0.834,35.852-9.11
		c1.904-0.658,2.606,0.061,2.26,1.976c-11.724,13.188-25.765,17.448-42.575,11.063C198.375,238.892,200.826,238.674,202.449,237.522
		z"/>
	<path fill-rule="evenodd" clip-rule="evenodd" fill="#8A8A8B" d="M313.263,17.971c1.233,1.374,2.468,2.75,3.702,4.123
		c-0.774,10.748-0.435,21.015,11.429,26.266c0.934,0.994,1.278,2.017,1.033,3.064c-0.247,1.066-0.519,1.598-0.811,1.598
		C310.462,44.204,307.003,36.304,313.263,17.971z"/>
	<path fill-rule="evenodd" clip-rule="evenodd" fill="#DDDDDD" d="M196.944,200.079c1.535-15.919,9.869-24.086,26.222-23.075
		C212.097,182.274,201.571,188.096,196.944,200.079z"/>
	<path fill-rule="evenodd" clip-rule="evenodd" fill="#BABABA" d="M328.616,53.022c-0.074-1.554-0.148-3.108-0.223-4.662
		c8.824,0.936,17.327,0.08,25.141-5.197C347.406,52.801,340.481,59.638,328.616,53.022z"/>
	<path fill-rule="evenodd" clip-rule="evenodd" fill="#CFCFD0" d="M245.252,99.723c13.369,1.709,20.821-1.362,28.119-4.904
		C267.713,103.395,261.394,109.946,245.252,99.723z"/>
	<path fill-rule="evenodd" clip-rule="evenodd" fill="#8A8A8B" d="M221.604,98.437c9.242,6.024,9.155,14.075,11.628,20.501
		C225.615,115.772,223.757,108.953,221.604,98.437z"/>
	<path fill-rule="evenodd" clip-rule="evenodd" fill="#929293" d="M238.301,228.412c4.456-9.201,10.952-17.697,9.826-28.897
		c4.983,12.218,1.285,22.186-7.566,30.873C239.846,229.688,239.092,229.03,238.301,228.412z"/>
	<path fill-rule="evenodd" clip-rule="evenodd" fill="#7D7D7E" d="M202.449,237.522c-1.487,1.309-2.974,2.62-4.463,3.928
		c-8.726-0.973-15.731-4.897-20.797-12.139c1.057-1.099,2.114-2.198,3.173-3.3C187.255,230.75,193.74,236.268,202.449,237.522z"/>
	<path fill-rule="evenodd" clip-rule="evenodd" fill="#C0D540" d="M457.301,720.247c-23.968,41.197-89.885,70.896-141.563,63.478
		c-69.036-9.907-115.065-48.834-140.618-113.236c-4.285-10.798-3.276-16.303,9.043-19.796c22.311-6.324,44.407-9.637,67.275-3.781
		c11.085,2.838,21.083,5.857,33.101-1.673c11.587-7.263,26.746,1.193,29.812,15.409c2.405,11.145,8.71,16.361,17.662,21.459
		c36.819,20.972,74.874,37.462,118.407,36.562C452.595,718.621,454.789,719.645,457.301,720.247z"/>
	<path fill-rule="evenodd" clip-rule="evenodd" fill="#C0D540" d="M324.485,611.2c-20.141,0.118-33.802-13.158-33.938-32.988
		c-0.137-20.125,13.247-34.022,32.887-34.153c18.988-0.127,34.277,14.502,34.619,33.131
		C358.393,595.49,342.996,611.088,324.485,611.2z"/>
	<path fill-rule="evenodd" clip-rule="evenodd" fill="#BFD340" d="M276.711,625.746c-1.604,8.979-6.5,14.683-16.079,14.346
		c-9.79-0.343-14.253-6.699-14.261-15.839c-0.011-9.844,5.711-14.662,15.398-14.102
		C271.268,610.697,276.035,616.281,276.711,625.746z"/>
	<path fill-rule="evenodd" clip-rule="evenodd" fill="#5A5A5C" d="M503.081,137.039c-3.894-16.967-12.027-31.212-26.548-41.36
		c1.244-2.281,2.488-4.564,3.734-6.849c22.557,16.494,32.497,38.459,28.77,66.347C499.426,151.636,507.4,142.319,503.081,137.039z"
		/>
	<path fill-rule="evenodd" clip-rule="evenodd" fill="#6E6E6F" d="M503.081,137.039c6.057,4.709,0.234,13.317,5.956,18.138
		c-3.191,22.706-15.631,38.574-35.948,48.617c-3.886,2.136-4.062-0.101-3.616-3.072
		C494.782,186.939,504.815,165.094,503.081,137.039z"/>
	<path fill-rule="evenodd" clip-rule="evenodd" fill="#89898A" d="M469.473,200.722c1.208,1.023,2.412,2.046,3.616,3.072
		c-13.8,8.218-27.854,10.983-42.552,1.468C444.117,208.213,456.966,205.768,469.473,200.722z"/>
	<path fill-rule="evenodd" clip-rule="evenodd" fill="#C0C0C1" d="M397.406,155.289c0.909,9.53,2.707,18.706,8.466,30.386
		C394.321,173.741,394.321,173.741,397.406,155.289z"/>
</g>
</svg>
