<?xml version="1.0" encoding="utf-8"?>
<!-- Generator: Adobe Illustrator 16.0.0, SVG Export Plug-In . SVG Version: 6.00 Build 0)  -->
<!DOCTYPE svg PUBLIC "-//W3C//DTD SVG 1.1//EN" "http://www.w3.org/Graphics/SVG/1.1/DTD/svg11.dtd">
<svg version="1.1" id="Layer_1" xmlns="http://www.w3.org/2000/svg" xmlns:xlink="http://www.w3.org/1999/xlink" x="0px" y="0px"
	 width="612px" height="792px" viewBox="0 0 612 792" enable-background="new 0 0 612 792" xml:space="preserve">
<g id="g3252" transform="matrix(0.99982199,0,0,1.0006603,-187.84736,-502.96111)">
	<g id="g3230" transform="translate(176.89157,0)">
		<path id="path17821" inkscape:connector-curvature="0" fill="#F68B32" d="M351.288,1231.102c-0.166,0.578-0.671,1.025-1.299,0.998
			c-0.696-0.021-1.252-0.578-1.299-1.242c-2.862-23.309-12.484-53.544-37.115-95.631c-14.092-24.092-8.814-47.124,4.438-66.944
			c-3.702,15.518-2.775,32.273,8.47,47.321c39.987,53.506,37.504,88.972,28.294,111.894
			C352.294,1228.703,351.653,1230.325,351.288,1231.102"/>
		<path id="path17795" inkscape:connector-curvature="0" fill="#F68B32" d="M217.697,1194.019
			c8.877-17.007,6.554-31.883,3.217-45.459c-1.696-6.904-3.661-13.567-4.564-20.13c-0.873-6.469-0.69-12.739,1.823-19.038
			c7.917-19.878,27.365-32.573,43.121-38.59c-12.149,11.082-32.937,33.691-28.952,54.972
			C242.258,1151.888,241.276,1179.246,217.697,1194.019"/>
		<path id="path17797" inkscape:connector-curvature="0" fill="#F68B32" d="M587.784,1023.605
			c-10.305,1.119-23.928,11.334-42.742,25.638c-6.04,4.624-12.188,10.18-19.108,14.742c-6.72,4.431-14.019,7.807-22.539,8.432
			c-16.89,1.239-39.527-8.28-72.701-44.858c-22.453-24.756-50.082-32.461-72.797-26.645c0,0,39.614-54.257,92.429,0.556
			c18.719,19.407,47.061,42.408,67.096,24.856c25.964-22.74,52.831-14.021,70.932-5.242c0.444,0.214,0.754,0.674,0.754,1.197
			C589.108,1023.013,588.512,1023.605,587.784,1023.605"/>
		<path id="path17807" inkscape:connector-curvature="0" fill="#F68B32" d="M194.983,1117.515
			c-10.747-12.465-14.044-34.554-13.893-47.194c0.143-11.857,1.72-20.194,3.201-20.966c3.005-1.566,10.034,4.63,10.431,4.471
			c0,0,25.694-22.199,63.213-13.108c-1.467-84.185-103.507-66.685-103.554-66.249c0,0-2.79,11.351-5.088,11.555
			c-4.114,0.364-5.317-1.648-11.19-8.726c0,0-4.312,0.681-4.59-0.023c-4.113-6.221-13.592-29.752-9.431-32.256
			c3.805-2.29-4.723-13.41-1.775-15.891c11.191-10.502,70.267-24.125,73.264-16.716c-0.445,1.371-0.642,2.846-0.651,4.368
			c-0.183,17.085,26.725,6.878,26.598-0.467c-0.071-4.028-1.917-7.593-4.779-9.987c-7.736-8.774-34.88-13.465-34.999-20.401
			c-0.056-3.375,10.85-22.865,25.424-18.086c29.031,6.301,39.287-10.025,42.624-16.16c2.345,7.402,6.521,27.295-11.612,38.327
			c-1.125,0.682-0.879,1.87,0.436,2.101c17.825,3.137,33.905-1.333,45.484-6.531c7.998-3.59,13.877-7.553,16.778-9.678
			c-0.04,0.849-0.118,1.911-0.271,3.131c-0.435,3.408-1.449,8.1-3.803,13.236c-4.7,10.224-14.734,22.261-36.243,29.236
			c-1.204,0.388-1.308,1.514-0.19,2.101c11.976,6.269,33.001,2.695,50.555-2.172c13.142-3.637,25.227-6.83,30.338-8.899
			c-20.019,61.872-59.377,48.505-59.756,51.35c-0.714,5.364,40.024-1.587,57.816,41.138c-2.276-0.467-75.063-17.291-72.836,46.54
			c-4.264,0.848-17.809,2.48-33.001,10.327c-16.787,8.664-32.075,32.026-35.832,54.798c-0.095,0.727-0.737,1.315-1.498,1.328
			C195.696,1118.012,195.268,1117.832,194.983,1117.515"/>
		<path id="path17815" inkscape:connector-curvature="0" fill="#F68B32" d="M58.11,986.904
			c0.745,20.328,13.188,38.517,87.164,18.054c27.279-7.537,44.375-2.148,54.963,5.532c5.318,3.868,9.052,8.345,11.627,12.173
			c0.84,1.268,1.561,2.456,2.171,3.537c-15.85-9.923-34.952-9.813-53.512-1.388c-95.303,43.265-120.126,14.147-121.283-2.456
			c-1.071-15.449,6.903-31.648,16.984-36.483c0.175-0.11,0.396-0.19,0.627-0.19C57.532,985.669,58.103,986.23,58.11,986.904"/>
		<path id="path17817" inkscape:connector-curvature="0" fill="#F68B32" d="M279.279,760.593c0.569,0.165,0.974,0.729,0.959,1.346
			c-0.025,0.594-0.445,1.094-0.992,1.244c-19.718,6.952-70.235,30.101-50.319,87.663c0,0-34.118-32.803-29.063-59.012
			C208.899,745.011,264.512,754.822,279.279,760.593"/>
		<path id="path17819" inkscape:connector-curvature="0" fill="#F68B32" d="M270.973,1222.534c-0.159,0.127-0.342,0.223-0.547,0.272
			c-0.713,0.181-1.427-0.256-1.609-0.97c-0.055-0.254-0.04-0.531,0.04-0.758c1.156-3.647,2.116-7.517,2.773-11.78
			c2.402-15.516,0.705-35.482-9.075-66.581c-8.709-27.698,2.387-47.243,17.333-60.987c2.861-2.63,5.857-5.032,8.861-7.211
			c-10.207,18.418-17.166,42.036-10.224,59.419c16.723,41.883,14.385,61.556,7.007,73.595
			C281.965,1213.341,276.837,1217.899,270.973,1222.534"/>
		<path id="path17823" inkscape:connector-curvature="0" fill="#F68B32" d="M459.639,1192.98c0.567,0.167,0.974,0.714,0.958,1.324
			c-0.032,0.641-0.485,1.165-1.088,1.276c-46.315,8.195-74.521-25.32-84.278-55.192c-14.021-42.931-28.769-68.555-41.664-83.851
			c27.057,13.227,59.639,41.084,68.832,76.607C412.609,1172.533,436.589,1188.109,459.639,1192.98"/>
		<path id="path17833" inkscape:connector-curvature="0" fill="#F68B32" d="M527.432,1144.485c0.737,0.008,1.315,0.611,1.315,1.348
			c-0.014,0.625-0.467,1.149-1.046,1.276c-33.977,11.331-73.753,13.609-90.555-21.486c-19.783-41.308-42.1-64.103-62.35-76.994
			c-10.049-6.396-19.488-10.296-27.69-12.832l-0.548-0.167c6.365-1.451,13.506-2.393,21.178-2.275
			c28.277,0.453,67.026,15.448,101.723,81.805C481.417,1138.032,504.727,1144.532,527.432,1144.485"/>
		<path id="path17835" inkscape:connector-curvature="0" fill="#F68B32" d="M596.081,940.008
			c-41.607,62.873-81.979,67.01-160.053,17.699c-21.661-13.68-59.37-3.537-82.395,8.432c0.596-1.1,1.255-2.29,1.992-3.535
			c3.993-6.72,10.168-15.217,18.965-22.446c17.388-14.287,45.468-24.021,88.447-3.906c50.565,23.682,80.808,20.772,100.194,15.058
			c4.003-1.19,22.515-9.258,31.124-13.212c0.151-0.072,0.324-0.135,0.515-0.143c0.729-0.031,1.348,0.547,1.37,1.276
			C596.255,939.501,596.21,939.794,596.081,940.008"/>
		<path id="path17837" inkscape:connector-curvature="0" fill="#F68B32" d="M570.942,859.613c0.308,0.253,0.5,0.642,0.476,1.071
			c-0.023,0.688-0.555,1.244-1.111,1.283c-3.629,0.562-10.293,1.87-14.534,3.797c-26.234,11.92-41.095,40.507-61.597,48.273
			c-17.444,6.61-38.747,7.006-77.067-13.98c-27.296-14.955-50.858-6.721-70.87,8.543c0.501-2.671,1.183-5.801,2.086-8.773
			c2.226-7.355,6.086-16.77,12.648-25.171c12.935-16.588,38.042-20.559,81.687-4.715c11.691,4.255,29.928,17.166,44.146,4.144
			c32.979-30.196,51.3-28.864,65.433-25.457C561.194,850.783,567.337,855.982,570.942,859.613"/>
		<path id="path17839" inkscape:connector-curvature="0" fill="#F68B32" d="M528.516,795.203c0.185-0.095,0.373-0.143,0.605-0.143
			c0.736,0.024,1.314,0.642,1.283,1.371c-0.007,0.175-0.064,0.334-0.128,0.476l-3.882,7.894
			c-3.979,8.029-10.271,17.468-20.012,25.505c-21.518,17.752-60.503,29.189-129.716,1.513
			c-28.507-11.404-55.032,18.095-68.84,38.613c-1.426-5.445-3.234-17.722,3.107-33.755c4.731-11.982,15.391-24.378,26.24-32.953
			l4.193-3.321l-5.134-1.499c-2.132-0.617-5.122-1.474-8.734-2.155c-5.699-1.078-13.023-1.727-21.035-0.277
			c-15.376,2.781-32.788,13.204-46.285,41.855c-0.54-2.561-1.054-5.461-1.371-8.227c-0.84-7.545-0.967-17.064,1.784-25.171
			c9.352-27.501,31.227-53.37,70.64-47.315c67.572,10.391,101.754-0.031,117.898-9.534l5.604-3.305
			c0.238-0.159,0.507-0.238,0.809-0.23c0.729,0.024,1.299,0.634,1.277,1.372c0,0.165-0.047,0.333-0.103,0.484l-3.38,8.044
			c-3.184,7.639-8.288,16.612-16.356,24.743c-5.532,5.579-12.521,10.817-21.311,14.939l-7.378,3.455l7.956,1.736
			c58.822,12.8,90.542,6.071,106.376-1.355L528.516,795.203"/>
	</g>
	<g id="g3244" transform="translate(173.26736,-0.49995709)">
		<path id="path17841" inkscape:connector-curvature="0" fill="#F68B32" d="M340.822,591.679l-24.406,21.904l-24.034-21.904
			l9.241-25.672h29.948L340.822,591.679"/>
		<path id="path17843" inkscape:connector-curvature="0" fill="#F68B32" d="M426.032,733.487c3.47-6.444,6.143-13.537,6.38-20.361
			c0.421-12.625-3.076-21.018-8.907-25.892l-0.547-0.453l0.402-0.563c5.976-8.425,13.571-10.255,20.741-8.361
			c9.52,2.496,15.542,10.898,9.337,28.349c-4.105,11.564-17.119,22.858-25.314,29.072c-0.237,0.198-0.555,0.293-0.879,0.293
			c-0.778,0-1.404-0.627-1.404-1.395C425.842,733.93,425.922,733.686,426.032,733.487"/>
		<path id="path17845" inkscape:connector-curvature="0" fill="#F68B32" d="M367.961,736.483c-0.055,0.143-0.07,0.326-0.07,0.5
			c0,0.769,0.628,1.395,1.395,1.395c0.302,0,0.555-0.103,0.785-0.253c11.754-8.607,33.834-26.741,40.451-45.374
			c9.232-25.956,0.277-38.445-13.884-42.179c-10.684-2.805-21.971-0.079-30.871,12.451l-0.586,0.832l0.807,0.682
			c8.679,7.243,13.879,19.727,13.246,38.51C378.844,714.371,373.985,726.061,367.961,736.483"/>
		<path id="path17847" inkscape:connector-curvature="0" fill="#F68B32" d="M316.305,736.618c-0.119,0.214-0.19,0.443-0.19,0.696
			c0,0.77,0.626,1.395,1.395,1.395c0.349,0,0.675-0.126,0.91-0.332c5.217-4.271,13.205-11.587,18.26-19.868
			c8.006-13.078,16.13-30.109,16.13-45.478c0-30.409-13.412-42.963-33.287-42.963c-18.965,0-29.165,8.251-32.249,27.779
			l-0.237,1.498c0,0,38.922-17.619,38.922,37.899C325.958,713.879,320.061,728.811,316.305,736.618"/>
		<path id="path17849" inkscape:connector-curvature="0" fill="#F68B32" d="M216.602,733.487
			c-3.471-6.444-6.133-13.537-6.363-20.361c-0.436-12.625,3.066-21.018,8.892-25.892l0.546-0.453l-0.397-0.563
			c-5.983-8.425-13.567-10.255-20.748-8.361c-9.519,2.496-15.542,10.898-9.336,28.349c4.114,11.564,17.128,22.858,25.314,29.072
			c0.238,0.198,0.555,0.293,0.879,0.293c0.777,0,1.404-0.627,1.404-1.395C216.793,733.93,216.714,733.686,216.602,733.487"/>
		<path id="path17859" inkscape:connector-curvature="0" fill="#F68B32" d="M274.68,736.483c0.048,0.143,0.07,0.326,0.07,0.5
			c0,0.769-0.625,1.395-1.402,1.395c-0.294,0-0.556-0.103-0.777-0.253c-11.754-8.607-33.834-26.741-40.459-45.374
			c-9.226-25.956-0.277-38.445,13.893-42.179c10.684-2.805,21.961-0.079,30.861,12.451l0.596,0.832l-0.81,0.682
			c-8.686,7.243-13.884,19.727-13.243,38.51C263.791,714.371,268.657,726.061,274.68,736.483"/>
	</g>
</g>
</svg>
