<?xml version="1.0" encoding="utf-8"?>
<!-- Generator: Adobe Illustrator 16.0.0, SVG Export Plug-In . SVG Version: 6.00 Build 0)  -->
<!DOCTYPE svg PUBLIC "-//W3C//DTD SVG 1.1//EN" "http://www.w3.org/Graphics/SVG/1.1/DTD/svg11.dtd">
<svg version="1.1" id="Layer_1" xmlns="http://www.w3.org/2000/svg" xmlns:xlink="http://www.w3.org/1999/xlink" x="0px" y="0px"
	 width="612px" height="792px" viewBox="0 0 612 792" enable-background="new 0 0 612 792" xml:space="preserve">
<g>
	<defs>
		<polyline id="SVGID_1_" points="621.804,828.705 -129.317,828.705 -129.317,-35.022 742.35,-35.022 		"/>
	</defs>
	<clipPath id="SVGID_2_">
		<use xlink:href="#SVGID_1_"  overflow="visible"/>
	</clipPath>
	<path clip-path="url(#SVGID_2_)" fill="#D9E24F" d="M559.249,304.783c0.115,0.396,0.187,0.651,0.187,0.651L410.75,506.322
		c-8.344,10.621-17.267,17.395-32.186,17.214H232.505c-19.444,0.014-27.64-5.401-35.799-25.814l-44.228-142.594
		c-5.482-12.349-4.304-26.643,3.142-37.921l148.021-193.059c-0.425,0-0.843-0.035-1.271-0.035
		c-150.714,0-272.895,122.184-272.895,272.897c0,150.719,122.181,272.899,272.895,272.899c150.717,0,272.9-122.181,272.9-272.899
		C575.271,364.639,569.592,333.598,559.249,304.783"/>
	<path clip-path="url(#SVGID_2_)" fill="#010101" d="M152.484,355.118l44.222,142.589c8.159,20.428,16.355,25.843,35.806,25.829
		H378.57c14.913,0.181,23.836-6.593,32.171-17.214l148.694-200.889c0,0-0.076-0.263-0.187-0.656
		c-37.686-104.944-137.823-180.09-255.609-180.629L155.618,317.207C148.179,328.485,146.996,342.779,152.484,355.118
		 M212.926,306.321H393.86v58.769h-60.758v100.031h-58.75V365.09h-61.426V306.321z"/>
	<polygon clip-path="url(#SVGID_2_)" fill="#FFFFFF" points="274.353,465.121 333.103,465.121 333.103,365.083 393.86,365.083 
		393.86,306.321 212.928,306.321 212.928,365.083 274.353,365.083 	"/>
</g>
</svg>
